# xmcd
#
# Track frame offsets: 
#        150
#        23278
#        37644
#        50805
#        65161
#        82538
#        95827
#        115285
#        132382
#        151211
#
# Disc length: 2243 seconds
#
# Revision: 0
# Processed by: cddbd v1.5.2PL0 Copyright (c) Steve Scherf et al.
# Submitted via: ExactAudioCopy v0.99pb4
#
DISCID=7508c10a
DTITLE=Black Eyed Peas - The E.N.D. (Deluxe Edition) CD2
DYEAR=2009
DGENRE=Hip-Hop
TTITLE0=Where Ya Wanna Go
TTITLE1=Simple Little Melody
TTITLE2=Mare
TTITLE3=Don't Bring Me Down
TTITLE4=Pump It Harder
TTITLE5=Let's Get Re-Started
TTITLE6=Shut The Phunk Up
TTITLE7=That's The Joint
TTITLE8=Another Weekend
TTITLE9=Don't Phunk Around
EXTD=
EXTT0=
EXTT1=
EXTT2=
EXTT3=
EXTT4=
EXTT5=
EXTT6=
EXTT7=
EXTT8=
EXTT9=
PLAYORDER=
